<svg width="113" height="155" viewBox="0 0 113 155" fill="none" xmlns="http://www.w3.org/2000/svg">
<path fill-rule="evenodd" clip-rule="evenodd" d="M44.79 77.1524L0.380005 128.43V25.69L44.79 76.9676L111.45 0V154.12L44.79 77.1524Z" fill="url(#paint0_linear_84_304)"/>
<path d="M89.4561 59.8182C89.4122 59.9501 89.4122 60.0819 89.4122 60.2137C89.4122 61.1804 90.3788 61.7516 91.3016 61.7516C91.8728 61.7516 92.444 61.5758 92.7955 61.0925C92.7955 61.0485 94.2455 57.6652 94.2455 54.9849C94.2455 54.7213 94.2455 54.5016 94.2015 54.2819C94.0697 53.2274 93.5425 52.5683 92.3561 52.5683C91.741 52.5683 90.95 52.744 89.9394 53.1834C88.9728 53.6668 86.4243 54.9849 84.7986 57.1819C83.788 58.544 83.3925 59.8182 83.3925 61.0485C83.3925 65.1788 87.9182 68.7379 89.5879 71.55C82.1622 77.1303 78.4713 82.2272 77.5486 85.1712C77.3728 85.7863 77.241 86.4454 77.241 87.1045C77.241 88.8621 77.944 90.5757 79.7016 90.9711C80.2728 91.103 80.844 91.1908 81.4152 91.1908C87.3031 91.1908 92.2682 83.7212 92.2682 77.1303C92.2682 75.4167 91.9167 73.703 91.1258 72.253C95.2122 69.2652 99.4303 67.3758 103.956 65.1788C106.461 63.9485 109.141 62.7622 112.173 62.4107C112.612 62.147 112.832 61.6637 112.832 61.1804C112.832 60.3894 112.305 59.5546 111.294 59.4667C108.262 60.5652 104.923 62.191 102.374 63.4652C97.8924 65.6622 94.4212 67.8152 90.3788 70.7152C88.2698 67.2879 85.6773 64.6955 85.6773 61.8394C85.6773 60.741 86.0289 59.5985 86.9516 58.3682C88.3137 56.5667 89.8516 55.2046 90.7304 54.7652C91.1258 54.5455 91.4334 54.4577 91.6531 54.4577C91.9167 54.4577 92.0046 54.6334 92.0046 54.897C92.0046 56.1273 89.4561 59.7743 89.4561 59.8182ZM90.2031 72.9121C90.6425 73.8348 90.8182 74.8894 90.8182 76.0318C90.8182 81.5681 86.0728 88.7742 81.3274 88.7742C80.888 88.7742 80.4925 88.7302 80.0971 88.5984C79.2622 88.3787 78.9986 87.7196 78.9986 87.0166C78.9986 86.5772 79.0865 86.0939 79.2183 85.6984C80.0531 83.106 83.5683 78.0091 90.2031 72.9121Z" fill="white"/>
<defs>
<linearGradient id="paint0_linear_84_304" x1="110.651" y1="0.810399" x2="-26.965" y2="82.6669" gradientUnits="userSpaceOnUse">
<stop stop-color="#0009E7"/>
<stop offset="1" stop-color="#000245"/>
</linearGradient>
</defs>
</svg>
