<svg width="106" height="64" viewBox="0 0 106 64" fill="none" xmlns="http://www.w3.org/2000/svg">
<path fill-rule="evenodd" clip-rule="evenodd" d="M13.7112 32.0467L0.116333 47.7439V16.2928L13.7112 31.9901L34.1173 8.42856V55.6082L13.7112 32.0467Z" fill="url(#paint0_linear_20_3476)"/>
<path d="M27.3845 26.2505C27.3711 26.2908 27.3711 26.3312 27.3711 26.3715C27.3711 26.6674 27.667 26.8423 27.9495 26.8423C28.1243 26.8423 28.2992 26.7885 28.4068 26.6405C28.4068 26.6271 28.8507 25.5914 28.8507 24.7709C28.8507 24.6902 28.8507 24.6229 28.8372 24.5557C28.7969 24.2329 28.6355 24.0311 28.2723 24.0311C28.084 24.0311 27.8419 24.0849 27.5325 24.2194C27.2366 24.3674 26.4564 24.7709 25.9588 25.4434C25.6494 25.8604 25.5283 26.2505 25.5283 26.6271C25.5283 27.8915 26.9138 28.981 27.4249 29.8418C25.1517 31.5501 24.0218 33.1104 23.7394 34.0116C23.6856 34.1999 23.6452 34.4016 23.6452 34.6034C23.6452 35.1414 23.8604 35.666 24.3985 35.7871C24.5733 35.8274 24.7482 35.8543 24.923 35.8543C26.7254 35.8543 28.2454 33.5677 28.2454 31.5501C28.2454 31.0255 28.1378 30.5009 27.8957 30.057C29.1466 29.1424 30.4379 28.564 31.8233 27.8915C32.59 27.5148 33.4105 27.1517 34.3386 27.0441C34.4731 26.9634 34.5403 26.8154 34.5403 26.6674C34.5403 26.4253 34.3789 26.1698 34.0696 26.1429C33.1415 26.4791 32.1192 26.9768 31.3391 27.3669C29.9671 28.0394 28.9045 28.6985 27.667 29.5863C27.0214 28.5371 26.2278 27.7435 26.2278 26.8692C26.2278 26.5329 26.3354 26.1832 26.6178 25.8066C27.0348 25.2551 27.5056 24.8381 27.7746 24.7036C27.8957 24.6364 27.9898 24.6095 28.0571 24.6095C28.1378 24.6095 28.1647 24.6633 28.1647 24.744C28.1647 25.1206 27.3845 26.237 27.3845 26.2505ZM27.6132 30.2588C27.7477 30.5413 27.8015 30.8641 27.8015 31.2138C27.8015 32.9086 26.3488 35.1145 24.8961 35.1145C24.7616 35.1145 24.6406 35.1011 24.5195 35.0607C24.264 34.9935 24.1832 34.7917 24.1832 34.5765C24.1832 34.442 24.2101 34.294 24.2505 34.173C24.5061 33.3794 25.5821 31.8191 27.6132 30.2588Z" fill="white"/>
<path d="M41.1061 21.7082V11.3521H43.0408L43.1633 21.7082H41.1061ZM47.5347 21.7082H46.0561L43.8184 16.0265L42.3092 11.3521H43.8337L46.4541 18.0378L46.9561 19.7429H46.7112L47.2286 18.0378L49.8337 11.3521H51.2663L49.7572 16.0572L47.5347 21.7082ZM50.4429 21.7082L50.55 11.3521H52.4847V21.7082H50.4429Z" fill="#0E0E2C"/>
<path d="M59.6877 16.7428V17.9459C58.9347 17.9459 58.3224 17.9826 57.8449 18.0592C57.3673 18.1357 56.9969 18.2459 56.7336 18.3867C56.4704 18.5275 56.2836 18.6928 56.1765 18.8734C56.0694 19.0571 56.0173 19.253 56.0173 19.4673C56.0173 19.7826 56.1336 20.0306 56.3663 20.2143C56.599 20.3979 56.9081 20.4898 57.2938 20.4898C57.6887 20.4898 58.05 20.3949 58.3745 20.199C58.699 20.0061 58.9561 19.7428 59.1428 19.4061C59.3296 19.0724 59.4245 18.699 59.4245 18.2949H60.1714C60.1316 18.9439 60.0061 19.501 59.7979 19.9632C59.5898 20.4255 59.3265 20.802 59.0051 21.0898C58.6867 21.3806 58.3316 21.5918 57.9459 21.7296C57.5602 21.8673 57.1745 21.9347 56.7887 21.9347C56.25 21.9347 55.7755 21.8459 55.3653 21.6683C54.9551 21.4908 54.6306 21.2275 54.3979 20.8755C54.1653 20.5265 54.049 20.0918 54.049 19.5745C54.049 19.0173 54.202 18.5367 54.5143 18.1357C54.8234 17.7347 55.2918 17.4285 55.9224 17.2143C56.4918 17.0122 57.0734 16.8806 57.6673 16.8255C58.2643 16.7704 58.9377 16.7428 59.6877 16.7428ZM56.2928 16.2255H54.3275C54.4194 15.6163 54.6183 15.0959 54.9275 14.6643C55.2367 14.2326 55.65 13.899 56.1612 13.6663C56.6724 13.4336 57.2755 13.3173 57.9673 13.3173C58.7173 13.3173 59.351 13.4551 59.8622 13.7275C60.3734 14.003 60.7592 14.3826 61.0132 14.8694C61.2673 15.3561 61.3928 15.9163 61.3928 16.5439V19.7122C61.3928 20.2112 61.4143 20.6122 61.4602 20.9245C61.5061 21.2367 61.5643 21.4969 61.6347 21.7081H59.6081C59.5255 21.5061 59.4765 21.249 59.4551 20.9398C59.4336 20.6306 59.4245 20.3183 59.4245 20.003V16.5469C59.4245 16.0204 59.2959 15.6194 59.0357 15.3439C58.7755 15.0683 58.3775 14.9336 57.8387 14.9336C57.3704 14.9336 57.0122 15.053 56.7581 15.2918C56.5102 15.5275 56.351 15.8398 56.2928 16.2255Z" fill="#0E0E2C"/>
<path d="M66.2205 21.7388C65.5286 21.7388 64.9347 21.5674 64.4296 21.2276C63.9276 20.8878 63.5419 20.4041 63.2725 19.7796C63.0031 19.1551 62.8684 18.4051 62.8684 17.5327C62.8684 16.1735 63.1715 15.1296 63.7745 14.4041C64.3776 13.6786 65.1919 13.3143 66.2205 13.3143C67.2154 13.3143 67.9684 13.6786 68.4827 14.4102C68.9939 15.1418 69.2511 16.1827 69.2511 17.5327C69.2511 18.9041 68.9756 19.948 68.4276 20.6612C67.8827 21.3806 67.1449 21.7388 66.2205 21.7388ZM70.4082 21.9653C70.4082 22.7061 70.2521 23.3245 69.9429 23.8143C69.6337 24.3072 69.2113 24.6776 68.6786 24.9255C68.146 25.1735 67.5398 25.299 66.8572 25.299C65.8531 25.299 65.0082 25.0663 64.3286 24.598C63.649 24.1296 63.2358 23.4102 63.0949 22.4367H65.0602C65.1215 22.8623 65.3113 23.1898 65.6327 23.4194C65.9511 23.649 66.3521 23.7623 66.8296 23.7623C67.3164 23.7623 67.7113 23.6306 68.0113 23.3674C68.3113 23.1041 68.4613 22.6449 68.4613 21.9959V13.5439H70.4082V21.9653ZM66.6643 20.1225C67.2429 20.1225 67.6868 19.9021 67.996 19.4612C68.3051 19.0204 68.4613 18.3776 68.4613 17.5357C68.4613 16.7031 68.3051 16.0602 67.9898 15.6102C67.6745 15.1572 67.2337 14.9337 66.6643 14.9337C66.0858 14.9337 65.6449 15.1572 65.3388 15.6041C65.0327 16.051 64.8827 16.6969 64.8827 17.5388C64.8827 18.3714 65.0358 19.0112 65.3388 19.4582C65.6419 19.899 66.0858 20.1225 66.6643 20.1225Z" fill="#0E0E2C"/>
<path d="M72.2082 21.7082V13.5439H74.1582V21.7082H72.2082ZM74.1551 16.9694H73.5306C73.5827 16.1459 73.7388 15.4663 74.0021 14.9275C74.2653 14.3888 74.6204 13.9847 75.0613 13.7153C75.5021 13.4459 76.0072 13.3112 76.5766 13.3112C77.1245 13.3112 77.6051 13.4214 78.0153 13.6388C78.4255 13.8561 78.747 14.1837 78.9735 14.6214C79.2031 15.0592 79.3164 15.6071 79.3164 16.2653V21.702H77.3664V16.6602C77.3664 16.2837 77.3143 15.9684 77.2072 15.7082C77.1 15.448 76.9408 15.2551 76.7266 15.1204C76.5123 14.9888 76.2398 14.9214 75.9031 14.9214C75.6398 14.9214 75.398 14.9735 75.1806 15.0806C74.9633 15.1877 74.7766 15.3347 74.6235 15.5214C74.4704 15.7082 74.3541 15.9286 74.2745 16.1765C74.198 16.4337 74.1551 16.6969 74.1551 16.9694Z" fill="#0E0E2C"/>
<path d="M86.1888 18.2796H86.8133C86.7735 19.103 86.6173 19.7857 86.348 20.3275C86.0786 20.8694 85.7296 21.2734 85.298 21.5398C84.8663 21.803 84.3704 21.9347 83.8133 21.9347C83.2867 21.9347 82.8153 21.8245 82.4051 21.6071C81.9949 21.3898 81.6765 21.0622 81.4531 20.6245C81.2296 20.1867 81.1194 19.6449 81.1194 18.9959V13.5439H83.0694V18.601C83.0694 18.9653 83.1214 19.2775 83.2224 19.5377C83.3235 19.7979 83.4796 19.9908 83.6878 20.1255C83.8959 20.2571 84.1622 20.3245 84.4867 20.3245C84.75 20.3245 84.9857 20.2724 85.1939 20.1653C85.402 20.0581 85.5796 19.9081 85.7265 19.7153C85.8735 19.5224 85.9867 19.3051 86.0694 19.0602C86.1459 18.8122 86.1888 18.5551 86.1888 18.2796ZM88.1357 13.5439V21.7081H86.1857V13.5439H88.1357Z" fill="#0E0E2C"/>
<path d="M89.9357 21.7082V13.5439H91.8857V21.7082H89.9357ZM91.8826 16.9694H91.2581C91.3102 16.1459 91.4602 15.4663 91.7142 14.9275C91.9683 14.3888 92.302 13.9847 92.7183 13.7153C93.1346 13.4459 93.6122 13.3112 94.151 13.3112C94.6591 13.3112 95.103 13.4214 95.4826 13.6388C95.8622 13.8561 96.1591 14.1837 96.3734 14.6214C96.5877 15.0592 96.6918 15.6071 96.6918 16.2653V21.702H94.7418V16.6602C94.7418 16.2837 94.6959 15.9684 94.604 15.7082C94.5122 15.448 94.3714 15.2551 94.1785 15.1204C93.9857 14.9888 93.7469 14.9214 93.4622 14.9214C93.2173 14.9214 93 14.9735 92.8071 15.0806C92.6142 15.1877 92.4459 15.3347 92.3051 15.5214C92.1642 15.7082 92.0571 15.9286 91.9867 16.1765C91.9193 16.4337 91.8826 16.6969 91.8826 16.9694ZM96.6948 16.9694H95.7979C95.85 16.1459 96.0091 15.4663 96.2785 14.9275C96.5479 14.3888 96.9061 13.9847 97.353 13.7153C97.7999 13.4459 98.3081 13.3112 98.8775 13.3112C99.3948 13.3112 99.854 13.4214 100.255 13.6388C100.656 13.8561 100.965 14.1837 101.186 14.6214C101.403 15.0592 101.513 15.6071 101.513 16.2653V21.702H99.5632V16.6602C99.5632 16.2837 99.5173 15.9684 99.4255 15.7082C99.3336 15.448 99.1959 15.2551 99.0061 15.1204C98.8193 14.9888 98.5775 14.9214 98.2836 14.9214C98.0387 14.9214 97.8214 14.9735 97.6285 15.0806C97.4357 15.1877 97.2673 15.3347 97.1265 15.5214C96.9857 15.7082 96.8785 15.9286 96.8081 16.1765C96.7316 16.4337 96.6948 16.6969 96.6948 16.9694Z" fill="#0E0E2C"/>
<path d="M41.1061 36.8704V26.5143H43.1633V36.8704H41.1061ZM44.8684 35.2112C45.5388 35.2112 46.1082 35.0704 46.5827 34.7918C47.0541 34.5133 47.4184 34.1122 47.6725 33.5888C47.9265 33.0653 48.0521 32.4377 48.0521 31.7092C48.0521 30.9684 47.9235 30.3347 47.6725 29.8051C47.4184 29.2786 47.0572 28.8745 46.5827 28.5929C46.1112 28.3143 45.5388 28.1735 44.8684 28.1735H42.6V26.5143H44.8684C45.9551 26.5143 46.8919 26.7224 47.6786 27.1388C48.4653 27.5551 49.0714 28.149 49.5 28.9204C49.9286 29.6918 50.1398 30.6224 50.1398 31.7061C50.1398 32.7837 49.9255 33.7051 49.5 34.4765C49.0745 35.248 48.4653 35.8388 47.6786 36.252C46.8919 36.6622 45.9551 36.8673 44.8684 36.8673H42.6V35.2082H44.8684V35.2112Z" fill="#0E0E2C"/>
<path d="M51.7225 27.7939V25.9051H53.6725V27.7939H51.7225ZM51.7225 36.8704V28.7061H53.6725V36.8704H51.7225Z" fill="#0E0E2C"/>
<path d="M58.4235 36.901C57.7316 36.901 57.1377 36.7327 56.6326 36.3898C56.1306 36.05 55.7449 35.5663 55.4755 34.9418C55.2061 34.3173 55.0714 33.5673 55.0714 32.6949C55.0714 31.3357 55.3745 30.2918 55.9775 29.5663C56.5806 28.8408 57.3949 28.4765 58.4235 28.4765C59.4184 28.4765 60.1714 28.8408 60.6857 29.5725C61.1969 30.3041 61.4541 31.3449 61.4541 32.6949C61.4541 34.0663 61.1786 35.1102 60.6306 35.8235C60.0826 36.5429 59.3479 36.901 58.4235 36.901ZM62.6112 37.1276C62.6112 37.8684 62.4551 38.4867 62.1459 38.9765C61.8367 39.4694 61.4143 39.8398 60.8816 40.0878C60.349 40.3357 59.7428 40.4612 59.0602 40.4612C58.0561 40.4612 57.2112 40.2286 56.5316 39.7602C55.852 39.2918 55.4388 38.5724 55.2979 37.5959H57.2632C57.3245 38.0214 57.5143 38.349 57.8357 38.5786C58.1541 38.8082 58.5551 38.9214 59.0326 38.9214C59.5194 38.9214 59.9143 38.7898 60.2143 38.5265C60.5143 38.2633 60.6643 37.8041 60.6643 37.1551V28.7031H62.6143V37.1276H62.6112ZM58.8643 35.2878C59.4428 35.2878 59.8867 35.0673 60.1959 34.6265C60.5051 34.1857 60.6612 33.5429 60.6612 32.701C60.6612 31.8684 60.5051 31.2255 60.1898 30.7755C59.8745 30.3255 59.4337 30.099 58.8643 30.099C58.2857 30.099 57.8449 30.3225 57.5388 30.7694C57.2326 31.2163 57.0826 31.8622 57.0826 32.7041C57.0826 33.5367 57.2357 34.1765 57.5388 34.6235C57.8449 35.0643 58.2857 35.2878 58.8643 35.2878Z" fill="#0E0E2C"/>
<path d="M64.4082 27.7939V25.9051H66.3582V27.7939H64.4082ZM64.4082 36.8704V28.7061H66.3582V36.8704H64.4082Z" fill="#0E0E2C"/>
<path d="M67.3469 30.2153V28.7061H72.0673V30.2153H67.3469ZM68.4 34.3265V26.8326H70.35V34.1581C70.35 34.5837 70.4357 34.9112 70.6102 35.1316C70.7816 35.3551 71.1367 35.4653 71.6755 35.4653H72.0398V36.8979C71.9388 36.9592 71.7796 37.0082 71.5684 37.0418C71.3541 37.0786 71.1153 37.0939 70.852 37.0939C70.0194 37.0939 69.401 36.8612 69.003 36.3928C68.599 35.9306 68.4 35.2418 68.4 34.3265Z" fill="#0E0E2C"/>
<path d="M78.496 31.9051V33.1082C77.7429 33.1082 77.1306 33.1449 76.6531 33.2214C76.1755 33.2979 75.8051 33.4082 75.5419 33.549C75.2786 33.6898 75.0919 33.8551 74.9847 34.0357C74.8776 34.2194 74.8255 34.4153 74.8255 34.6296C74.8255 34.9449 74.9419 35.1928 75.1745 35.3765C75.4072 35.5602 75.7164 35.652 76.1021 35.652C76.497 35.652 76.8582 35.5571 77.1827 35.3612C77.5072 35.1684 77.7643 34.9051 77.9511 34.5684C78.1378 34.2347 78.2327 33.8643 78.2327 33.4571H78.9796C78.9398 34.1061 78.8143 34.6633 78.6062 35.1255C78.398 35.5877 78.1347 35.9643 77.8133 36.252C77.4919 36.5398 77.1398 36.7541 76.7541 36.8918C76.3684 37.0296 75.9827 37.0969 75.597 37.0969C75.0582 37.0969 74.5837 37.0082 74.1735 36.8306C73.7633 36.6531 73.4388 36.3898 73.2062 36.0377C72.9735 35.6888 72.8572 35.2541 72.8572 34.7367C72.8572 34.1796 73.0102 33.699 73.3225 33.2979C73.6317 32.8969 74.1 32.5908 74.7306 32.3765C75.3 32.1745 75.8817 32.0428 76.4755 31.9877C77.0725 31.9326 77.746 31.9051 78.496 31.9051ZM75.1011 31.3877H73.1358C73.2276 30.7786 73.4266 30.2582 73.7357 29.8265C74.0449 29.3949 74.4582 29.0612 74.9694 28.8286C75.4806 28.5959 76.0837 28.4796 76.7755 28.4796C77.5255 28.4796 78.1592 28.6173 78.6704 28.8898C79.1817 29.1653 79.5674 29.5449 79.8215 30.0316C80.0755 30.5184 80.2011 31.0786 80.2011 31.7061V34.8745C80.2011 35.3735 80.2225 35.7745 80.2684 36.0867C80.3143 36.3959 80.3725 36.6592 80.4429 36.8704H78.4164C78.3337 36.6684 78.2847 36.4112 78.2633 36.102C78.2419 35.7928 78.2327 35.4806 78.2327 35.1653V31.7092C78.2327 31.1826 78.1041 30.7786 77.8439 30.5061C77.5837 30.2337 77.1858 30.0959 76.647 30.0959C76.1786 30.0959 75.8204 30.2153 75.5664 30.4541C75.3123 30.6929 75.1623 31.002 75.1011 31.3877Z" fill="#0E0E2C"/>
<path d="M82.0591 36.8704V25.9051H84.0091V36.8704H82.0591Z" fill="#0E0E2C"/>
<path d="M42.8449 44.2816C42.8449 44.5969 42.9337 44.8479 43.1112 45.0347C43.2888 45.2214 43.5245 45.3684 43.8184 45.4755C44.1122 45.5826 44.4429 45.6745 44.8071 45.751C45.1714 45.8275 45.551 45.9041 45.9429 45.9806C46.3347 46.0571 46.7112 46.1612 47.0786 46.2928C47.4429 46.4245 47.7765 46.599 48.0765 46.8194C48.3765 47.0367 48.6122 47.3214 48.7837 47.6735C48.9551 48.0224 49.0439 48.4633 49.0439 48.9898C49.0439 49.6816 48.8694 50.2724 48.5173 50.7653C48.1684 51.2581 47.6878 51.6316 47.0786 51.8857C46.4694 52.1398 45.7745 52.2653 44.9908 52.2653C44.198 52.2653 43.4969 52.1428 42.8816 51.901C42.2663 51.6561 41.7582 51.2857 41.3571 50.7898C40.9561 50.2939 40.6898 49.6694 40.5582 48.9163H42.7041C42.8357 49.4643 43.099 49.8867 43.4878 50.1806C43.8765 50.4745 44.3847 50.6214 45.0031 50.6214C45.6429 50.6214 46.1235 50.4959 46.451 50.2479C46.7755 50 46.9378 49.6663 46.9378 49.25C46.9378 48.9163 46.852 48.6469 46.6776 48.4418C46.5061 48.2398 46.2704 48.0775 45.9765 47.9612C45.6827 47.8449 45.352 47.7469 44.9878 47.6643C44.6235 47.5816 44.2439 47.499 43.852 47.4133C43.4602 47.3275 43.0806 47.2204 42.7102 47.0949C42.3398 46.9694 42.0061 46.798 41.7122 46.5837C41.4184 46.3694 41.1857 46.0939 41.0112 45.7541C40.8398 45.4143 40.751 44.9857 40.751 44.4684C40.751 43.9204 40.898 43.4184 41.1918 42.9622C41.4857 42.5061 41.9173 42.1388 42.4867 41.8663C43.0561 41.5908 43.7449 41.4561 44.5592 41.4561C45.2602 41.4561 45.9061 41.5724 46.5 41.8051C47.0939 42.0377 47.5929 42.399 47.9939 42.8857C48.3949 43.3724 48.6459 44.0092 48.7469 44.7898H46.5673C46.4449 44.202 46.2092 43.7735 45.8602 43.5041C45.5112 43.2347 45.0551 43.1 44.498 43.1C43.9806 43.1 43.5735 43.2102 43.2796 43.4275C42.9918 43.6388 42.8449 43.9265 42.8449 44.2816Z" fill="#0E0E2C"/>
<path d="M53.9449 52.2622C53.1337 52.2622 52.4357 52.0908 51.851 51.7449C51.2663 51.399 50.8163 50.9061 50.5041 50.2602C50.1918 49.6143 50.0327 48.852 50.0327 47.9673C50.0327 47.0428 50.1918 46.2592 50.5133 45.6132C50.8347 44.9673 51.2878 44.4775 51.8755 44.1439C52.4633 43.8102 53.1551 43.6418 53.948 43.6418C54.75 43.6418 55.4418 43.8163 56.0265 44.1683C56.6112 44.5204 57.0612 45.0163 57.3735 45.6622C57.6888 46.3081 57.8449 47.0765 57.8449 47.9704C57.8449 48.8826 57.6857 49.6602 57.3643 50.3C57.0459 50.9398 56.5929 51.4265 56.0082 51.7632C55.4235 52.1 54.7378 52.2622 53.9449 52.2622ZM53.9449 50.649C54.5541 50.649 55.0225 50.4194 55.3469 49.9571C55.6714 49.4949 55.8337 48.8337 55.8337 47.9704C55.8337 47.0979 55.6714 46.4275 55.3469 45.9592C55.0225 45.4908 54.5541 45.2581 53.9449 45.2581C53.3265 45.2581 52.852 45.4877 52.5276 45.95C52.2031 46.4122 52.0408 47.0857 52.0408 47.9673C52.0408 48.8214 52.2031 49.4796 52.5276 49.9479C52.852 50.4163 53.3265 50.649 53.9449 50.649Z" fill="#0E0E2C"/>
<path d="M59.2622 52.0327V41.0674H61.2122V52.0327H59.2622Z" fill="#0E0E2C"/>
<path d="M68.0632 48.6071H68.6877C68.6479 49.4306 68.4918 50.1133 68.2224 50.6551C67.953 51.2 67.604 51.601 67.1724 51.8673C66.7408 52.1306 66.2449 52.2622 65.6877 52.2622C65.1612 52.2622 64.6898 52.152 64.2796 51.9347C63.8693 51.7173 63.551 51.3898 63.3275 50.952C63.104 50.5143 62.9938 49.9724 62.9938 49.3235V43.8714H64.9438V48.9286C64.9438 49.2929 64.9959 49.6051 65.0969 49.8653C65.1979 50.1255 65.354 50.3214 65.5622 50.4531C65.7704 50.5847 66.0367 50.652 66.3612 50.652C66.6244 50.652 66.8602 50.6 67.0683 50.4929C67.2765 50.3857 67.454 50.2357 67.601 50.0429C67.7479 49.85 67.8612 49.6327 67.9438 49.3878C68.0234 49.1398 68.0632 48.8796 68.0632 48.6071ZM70.0132 43.8714V52.0357H68.0632V43.8714H70.0132Z" fill="#0E0E2C"/>
<path d="M71.0173 45.3775V43.8683H75.7377V45.3775H71.0173ZM72.0704 49.4888V41.9949H74.0204V49.3204C74.0204 49.7459 74.1061 50.0734 74.2806 50.2939C74.452 50.5173 74.8071 50.6275 75.3459 50.6275H75.7102V52.0602C75.6092 52.1214 75.45 52.1704 75.2388 52.2041C75.0245 52.2408 74.7857 52.2561 74.5224 52.2561C73.6898 52.2561 73.0714 52.0234 72.6735 51.5551C72.2694 51.0959 72.0704 50.4041 72.0704 49.4888Z" fill="#0E0E2C"/>
<path d="M76.8826 42.9561V41.0674H78.8326V42.9561H76.8826ZM76.8826 52.0327V43.8684H78.8326V52.0327H76.8826Z" fill="#0E0E2C"/>
<path d="M84.1469 52.2622C83.3357 52.2622 82.6377 52.0908 82.053 51.7449C81.4684 51.399 81.0184 50.9061 80.7061 50.2602C80.3939 49.6143 80.2347 48.852 80.2347 47.9673C80.2347 47.0428 80.3939 46.2592 80.7153 45.6132C81.0367 44.9673 81.4898 44.4775 82.0775 44.1439C82.6653 43.8102 83.3571 43.6418 84.15 43.6418C84.952 43.6418 85.6439 43.8163 86.2286 44.1683C86.8132 44.5204 87.2632 45.0163 87.5755 45.6622C87.8908 46.3081 88.0469 47.0765 88.0469 47.9704C88.0469 48.8826 87.8877 49.6602 87.5663 50.3C87.2479 50.9398 86.7949 51.4265 86.2102 51.7632C85.6255 52.1 84.9398 52.2622 84.1469 52.2622ZM84.1469 50.649C84.7561 50.649 85.2245 50.4194 85.549 49.9571C85.8735 49.4949 86.0357 48.8337 86.0357 47.9704C86.0357 47.0979 85.8735 46.4275 85.549 45.9592C85.2245 45.4908 84.7561 45.2581 84.1469 45.2581C83.5286 45.2581 83.0541 45.4877 82.7296 45.95C82.4051 46.4122 82.2428 47.0857 82.2428 47.9673C82.2428 48.8214 82.4051 49.4796 82.7296 49.9479C83.0541 50.4163 83.5286 50.649 84.1469 50.649Z" fill="#0E0E2C"/>
<path d="M89.4612 52.0326V43.8684H91.4112V52.0326H89.4612ZM91.4112 47.2969H90.7867C90.8387 46.4735 90.9949 45.7939 91.2581 45.2551C91.5214 44.7163 91.8765 44.3122 92.3173 44.0428C92.7581 43.7735 93.2632 43.6388 93.8326 43.6388C94.3806 43.6388 94.8612 43.749 95.2714 43.9663C95.6816 44.1837 96.003 44.5112 96.2296 44.949C96.4591 45.3867 96.5724 45.9347 96.5724 46.5929V52.0296H94.6224V46.9877C94.6224 46.6112 94.5704 46.2959 94.4632 46.0357C94.3561 45.7755 94.1969 45.5826 93.9826 45.4479C93.7683 45.3163 93.4959 45.249 93.1591 45.249C92.8959 45.249 92.654 45.301 92.4367 45.4082C92.2193 45.5153 92.0326 45.6622 91.8796 45.849C91.7265 46.0357 91.6102 46.2561 91.5306 46.5041C91.451 46.7612 91.4112 47.0214 91.4112 47.2969Z" fill="#0E0E2C"/>
<path d="M100.001 46.0632C100.001 46.3388 100.093 46.5469 100.277 46.6877C100.46 46.8286 100.705 46.9388 101.014 47.0153C101.323 47.0918 101.66 47.1561 102.028 47.2143C102.392 47.2694 102.759 47.3428 103.123 47.4347C103.488 47.5265 103.824 47.652 104.128 47.8143C104.434 47.9765 104.679 48.2 104.865 48.4847C105.052 48.7694 105.147 49.149 105.147 49.6265C105.147 50.1439 104.997 50.6 104.697 50.9979C104.397 51.3928 103.99 51.7051 103.472 51.9255C102.955 52.149 102.349 52.2592 101.66 52.2592C100.656 52.2592 99.8143 52.0234 99.1408 51.552C98.4643 51.0806 98.0571 50.352 97.9163 49.3663H99.8663C99.9367 49.8041 100.139 50.1439 100.469 50.3857C100.8 50.6306 101.219 50.75 101.724 50.75C102.211 50.75 102.579 50.6551 102.82 50.4683C103.065 50.2816 103.185 50.0398 103.185 49.7459C103.185 49.4826 103.093 49.2775 102.909 49.1367C102.726 48.9959 102.487 48.8888 102.187 48.8183C101.887 48.7479 101.556 48.6806 101.198 48.6194C100.837 48.5581 100.479 48.4847 100.123 48.399C99.7684 48.3132 99.4408 48.1847 99.1408 48.0194C98.8408 47.8541 98.599 47.6245 98.4184 47.3337C98.2347 47.0428 98.1429 46.6602 98.1429 46.1826C98.1429 45.7357 98.2592 45.3224 98.4918 44.9428C98.7245 44.5632 99.0765 44.251 99.5418 44.0061C100.007 43.7612 100.598 43.6418 101.308 43.6418C101.939 43.6418 102.502 43.7428 102.998 43.9479C103.494 44.15 103.91 44.4653 104.238 44.8908C104.568 45.3163 104.767 45.8704 104.838 46.55H102.888C102.805 46.0541 102.628 45.6959 102.346 45.4847C102.067 45.2704 101.694 45.1663 101.226 45.1663C100.84 45.1663 100.537 45.252 100.319 45.4265C100.108 45.5979 100.001 45.8092 100.001 46.0632Z" fill="#0E0E2C"/>
<defs>
<linearGradient id="paint0_linear_20_3476" x1="33.8726" y1="8.67664" x2="-8.2546" y2="33.7347" gradientUnits="userSpaceOnUse">
<stop stop-color="#0009E7"/>
<stop offset="1" stop-color="#000245"/>
</linearGradient>
</defs>
</svg>
